<svg width="125" height="53" viewBox="0 0 125 53" fill="none" xmlns="http://www.w3.org/2000/svg">
<mask id="mask0_111_146" style="mask-type:alpha" maskUnits="userSpaceOnUse" x="47" y="18" width="78" height="23">
<rect x="47.7354" y="18.9453" width="77.2644" height="21.8602" fill="#D9D9D9"/>
</mask>
<g mask="url(#mask0_111_146)">
<path d="M57.0821 37.7903H51.4768L42.459 20.076H47.8307L54.3183 33.4068L60.793 20.076H66.1647L57.0821 37.7903Z" fill="#1D2A42"/>
<path d="M80.8916 28.7011L89.3515 37.7903H83.5775L77.9982 31.821L72.4448 37.7903H66.6837L75.1306 28.7011L67.099 20.076H72.8729L77.9982 25.6198L83.1493 20.076H88.9233L80.8916 28.7011Z" fill="#1D2A42"/>
<path d="M106.829 34.4382H96.8901L95.2163 37.7903H89.8445L99.1737 20.076H104.545L113.875 37.7903H108.503L106.829 34.4382ZM98.6158 30.983H105.129L101.886 24.4594L98.6158 30.983Z" fill="#1D2A42"/>
<path d="M116.794 37.7903V20.076H121.608V37.7903H116.794Z" fill="#1D2A42"/>
</g>
<path fill-rule="evenodd" clip-rule="evenodd" d="M37.5598 14.6109C37.5598 19.9189 33.2568 24.2219 27.9488 24.2219C22.6409 24.2219 18.3379 19.9189 18.3379 14.6109C18.3379 9.30297 22.6409 5 27.9488 5C33.2568 5 37.5598 9.30297 37.5598 14.6109ZM29.6454 8.0152C29.6454 8.84782 28.9704 9.5228 28.1378 9.5228C27.3051 9.5228 26.6302 8.84782 26.6302 8.0152C26.6302 7.18257 27.3051 6.5076 28.1378 6.5076C28.9704 6.5076 29.6454 7.18257 29.6454 8.0152ZM28.1378 22.7143C28.9704 22.7143 29.6454 22.0393 29.6454 21.2067C29.6454 20.3741 28.9704 19.6991 28.1378 19.6991C27.3051 19.6991 26.6302 20.3741 26.6302 21.2067C26.6302 22.0393 27.3051 22.7143 28.1378 22.7143ZM21.6717 16.6032C22.3928 16.1869 23.3149 16.4339 23.7312 17.155C24.1475 17.8761 23.9004 18.7981 23.1793 19.2144C22.4583 19.6307 21.5362 19.3837 21.1199 18.6626C20.7036 17.9415 20.9507 17.0195 21.6717 16.6032ZM35.1552 10.5593C34.7389 9.8382 33.8168 9.59114 33.0958 10.0074C32.3747 10.4238 32.1276 11.3458 32.5439 12.0669C32.9603 12.7879 33.8823 13.035 34.6034 12.6187C35.3244 12.2024 35.5715 11.2803 35.1552 10.5593ZM23.1794 10.0074C23.9005 10.4237 24.1475 11.3457 23.7312 12.0668C23.3149 12.7879 22.3929 13.0349 21.6718 12.6186C20.9507 12.2023 20.7037 11.2803 21.12 10.5592C21.5363 9.83814 22.4583 9.59108 23.1794 10.0074ZM35.1554 18.6626C35.5717 17.9415 35.3247 17.0195 34.6036 16.6032C33.8825 16.1869 32.9605 16.4339 32.5442 17.155C32.1278 17.8761 32.3749 18.7981 33.096 19.2144C33.8171 19.6307 34.7391 19.3837 35.1554 18.6626Z" fill="#1D2A42"/>
<path fill-rule="evenodd" clip-rule="evenodd" d="M17.3374 17.1763C17.3374 21.9639 13.4563 25.845 8.66869 25.845C3.88111 25.845 0 21.9639 0 17.1763C0 12.3887 3.88111 8.5076 8.66869 8.5076C13.4563 8.5076 17.3374 12.3887 17.3374 17.1763ZM10.1981 11.2272C10.1981 11.9782 9.58934 12.587 8.83835 12.587C8.08736 12.587 7.47855 11.9782 7.47855 11.2272C7.47855 10.4762 8.08736 9.86739 8.83835 9.86739C9.58934 9.86739 10.1981 10.4762 10.1981 11.2272ZM8.83857 24.4852C9.58956 24.4852 10.1984 23.8764 10.1984 23.1254C10.1984 22.3744 9.58956 21.7656 8.83857 21.7656C8.08757 21.7656 7.47877 22.3744 7.47877 23.1254C7.47877 23.8764 8.08757 24.4852 8.83857 24.4852ZM3.0062 18.9732C3.65658 18.5977 4.48821 18.8206 4.86371 19.4709C5.23921 20.1213 5.01637 20.953 4.36599 21.3285C3.71561 21.704 2.88398 21.4811 2.50848 20.8307C2.13298 20.1804 2.35582 19.3487 3.0062 18.9732ZM15.1678 13.5218C14.7923 12.8715 13.9607 12.6486 13.3103 13.0241C12.6599 13.3996 12.4371 14.2313 12.8126 14.8816C13.1881 15.532 14.0197 15.7549 14.6701 15.3794C15.3205 15.0039 15.5433 14.1722 15.1678 13.5218ZM4.36619 13.0241C5.01657 13.3996 5.2394 14.2312 4.86391 14.8816C4.48841 15.532 3.65677 15.7548 3.00639 15.3793C2.35601 15.0038 2.13318 14.1722 2.50867 13.5218C2.88417 12.8714 3.71581 12.6486 4.36619 13.0241ZM15.1677 20.8307C15.5432 20.1804 15.3204 19.3487 14.67 18.9732C14.0196 18.5977 13.188 18.8206 12.8125 19.4709C12.437 20.1213 12.6598 20.953 13.3102 21.3285C13.9606 21.704 14.7922 21.4811 15.1677 20.8307Z" fill="#1D2A42"/>
<rect x="4.39258" y="19.6991" width="31.2827" height="19.9757" rx="2" fill="#1D2A42"/>
<rect x="35.2979" y="26.1064" width="2.6383" height="5.6535" fill="#1D2A42"/>
<rect x="16.8301" y="41.5593" width="2.6383" height="6.40729" transform="rotate(-90 16.8301 41.5593)" fill="#1D2A42"/>
<rect x="15.6992" y="45.3283" width="4.8997" height="9.04559" rx="1" transform="rotate(-90 15.6992 45.3283)" fill="#1D2A42"/>
<rect x="7.78418" y="35.152" width="4.8997" height="7.91489" rx="1" transform="rotate(180 7.78418 35.152)" fill="#1D2A42"/>
<rect x="20.9756" y="52.4971" width="1.5076" height="8.29179" rx="0.753799" transform="rotate(180 20.9756 52.4971)" fill="#1D2A42"/>
<rect x="21.7295" y="44.7132" width="1.5076" height="8.29179" rx="0.753799" transform="rotate(-20 21.7295 44.7132)" fill="#1D2A42"/>
<rect x="17.4043" y="44.1976" width="1.5076" height="8.29179" rx="0.753799" transform="rotate(20 17.4043 44.1976)" fill="#1D2A42"/>
<path d="M37.9365 26.1064L46.2283 20.076V37.7903L37.9365 31.7599V26.1064Z" fill="#1D2A42"/>
<path d="M57.9239 5.18741L58.6376 8.76937L61.9929 10.2121L58.8068 11.9978L58.4714 15.6347L55.7887 13.1563L52.2261 13.9613L53.7542 10.6439L51.8877 7.50448L55.5149 7.93265L57.9239 5.18741Z" fill="#1D2A42"/>
<path d="M60.4982 47.4938L61.2515 45.2721L59.8485 43.3921L62.1942 43.4221L63.5487 41.5067L64.2451 43.7469L66.4852 44.4432L64.5699 45.7977L64.5999 48.1434L62.7198 46.7404L60.4982 47.4938Z" fill="#1D2A42"/>
<path d="M40.5038 43.5121L40.9574 42.1744L40.1126 41.0424L41.525 41.0605L42.3406 39.9072L42.7598 41.2561L44.1087 41.6753L42.9554 42.4909L42.9735 43.9033L41.8414 43.0585L40.5038 43.5121Z" fill="#1D2A42"/>
<path d="M90.5038 15.5121L90.9574 14.1744L90.1126 13.0424L91.525 13.0605L92.3406 11.9072L92.7598 13.2561L94.1087 13.6753L92.9554 14.4909L92.9735 15.9033L91.8414 15.0585L90.5038 15.5121Z" fill="#1D2A42"/>
<path d="M110.838 12.6069L111.162 8.86453L108.263 6.47551L111.923 5.62781L113.299 2.13263L115.236 5.35106L118.986 5.57994L116.523 8.41674L117.464 12.0534L114.005 10.5882L110.838 12.6069Z" fill="#1D2A42"/>
<path d="M83.4122 3.9143L84.9595 5.67754L87.2892 5.40253L86.0904 7.41896L87.0719 9.54964L84.7837 9.03262L83.0606 10.6245L82.8452 8.28851L80.7988 7.14163L82.9539 6.21495L83.4122 3.9143Z" fill="#1D2A42"/>
</svg>
